<?xml version="1.0" encoding="UTF-8"?>
<svg xmlns="http://www.w3.org/2000/svg" xmlns:xlink="http://www.w3.org/1999/xlink" width="35pt" height="35pt" viewBox="0 0 35 35" version="1.1">
<g id="surface1">
<path style=" stroke:none;fill-rule:nonzero;fill:rgb(47.058824%,72.54902%,92.156863%);fill-opacity:1;" d="M 26.230469 33.84375 L 26.230469 31.886719 C 26.082031 31.835938 25.9375 31.773438 25.796875 31.707031 L 24.414062 33.089844 L 22.3125 30.988281 L 23.695312 29.605469 C 23.628906 29.464844 23.570312 29.320312 23.515625 29.175781 L 21.558594 29.175781 L 21.558594 26.835938 L 23.515625 26.835938 C 23.570312 26.691406 23.628906 26.546875 23.695312 26.40625 L 22.3125 25.019531 L 24.414062 22.917969 L 25.796875 24.304688 C 25.9375 24.238281 26.082031 24.175781 26.230469 24.125 L 26.230469 22.167969 L 28.5625 22.167969 L 28.5625 24.125 C 28.710938 24.175781 28.855469 24.238281 28.996094 24.304688 L 30.378906 22.917969 L 32.484375 25.019531 L 31.097656 26.40625 C 31.167969 26.546875 31.226562 26.691406 31.277344 26.835938 L 33.234375 26.835938 L 33.234375 29.175781 L 31.277344 29.175781 C 31.226562 29.320312 31.164062 29.464844 31.097656 29.605469 L 32.484375 30.988281 L 30.378906 33.089844 L 28.996094 31.707031 C 28.855469 31.773438 28.710938 31.835938 28.566406 31.886719 L 28.566406 33.84375 Z M 27.398438 25.671875 C 26.109375 25.671875 25.0625 26.714844 25.0625 28.003906 C 25.0625 29.296875 26.109375 30.339844 27.398438 30.339844 C 28.6875 30.339844 29.734375 29.296875 29.734375 28.003906 C 29.734375 26.714844 28.6875 25.671875 27.398438 25.671875 Z M 27.398438 25.671875 "/>
<path style=" stroke:none;fill-rule:nonzero;fill:rgb(47.058824%,72.54902%,92.156863%);fill-opacity:1;" d="M 19.222656 17.496094 C 19.222656 18.785156 18.179688 19.832031 16.886719 19.832031 C 15.597656 19.832031 14.550781 18.785156 14.550781 17.496094 C 14.550781 16.207031 15.597656 15.164062 16.886719 15.164062 C 18.179688 15.164062 19.222656 16.207031 19.222656 17.496094 Z M 19.222656 17.496094 "/>
<path style=" stroke:none;fill-rule:nonzero;fill:rgb(10.196078%,43.529412%,69.019608%);fill-opacity:1;" d="M 33.234375 26.253906 L 32.074219 26.253906 L 32.894531 25.4375 C 33.121094 25.210938 33.121094 24.839844 32.894531 24.609375 L 30.789062 22.507812 C 30.5625 22.28125 30.195312 22.28125 29.964844 22.507812 L 29.148438 23.324219 L 29.148438 22.167969 C 29.148438 21.84375 28.886719 21.582031 28.5625 21.582031 L 26.230469 21.582031 C 25.90625 21.582031 25.644531 21.84375 25.644531 22.167969 L 25.644531 23.324219 L 24.828125 22.507812 C 24.601562 22.28125 24.230469 22.28125 24.003906 22.507812 L 21.902344 24.609375 C 21.671875 24.839844 21.671875 25.210938 21.902344 25.4375 L 22.71875 26.253906 L 21.558594 26.253906 C 21.234375 26.253906 20.972656 26.515625 20.972656 26.835938 L 20.972656 29.175781 C 20.972656 29.496094 21.234375 29.757812 21.558594 29.757812 L 22.71875 29.757812 L 21.902344 30.574219 C 21.671875 30.804688 21.671875 31.171875 21.902344 31.402344 L 24.003906 33.5 C 24.230469 33.730469 24.601562 33.730469 24.828125 33.5 L 25.644531 32.683594 L 25.644531 33.84375 C 25.644531 34.164062 25.90625 34.425781 26.230469 34.425781 L 28.5625 34.425781 C 28.886719 34.425781 29.148438 34.164062 29.148438 33.84375 L 29.148438 32.683594 L 29.964844 33.5 C 30.195312 33.730469 30.5625 33.730469 30.789062 33.5 L 32.894531 31.402344 C 33.121094 31.171875 33.121094 30.804688 32.894531 30.574219 L 32.074219 29.757812 L 33.234375 29.757812 C 33.558594 29.757812 33.820312 29.496094 33.820312 29.175781 L 33.820312 26.835938 C 33.820312 26.515625 33.558594 26.253906 33.234375 26.253906 Z M 32.652344 28.589844 L 31.277344 28.589844 C 31.03125 28.589844 30.808594 28.746094 30.726562 28.980469 C 30.683594 29.105469 30.628906 29.230469 30.570312 29.351562 C 30.464844 29.578125 30.511719 29.84375 30.6875 30.019531 L 31.660156 30.988281 L 30.378906 32.265625 L 29.410156 31.296875 C 29.234375 31.121094 28.96875 31.074219 28.746094 31.179688 C 28.621094 31.238281 28.496094 31.289062 28.367188 31.335938 C 28.136719 31.417969 27.980469 31.636719 27.980469 31.882812 L 27.980469 33.261719 L 26.8125 33.261719 L 26.8125 31.886719 C 26.8125 31.636719 26.65625 31.417969 26.425781 31.335938 C 26.296875 31.292969 26.171875 31.238281 26.050781 31.179688 C 25.828125 31.074219 25.558594 31.121094 25.386719 31.296875 L 24.414062 32.265625 L 23.132812 30.988281 L 24.105469 30.019531 C 24.28125 29.84375 24.328125 29.578125 24.222656 29.351562 C 24.164062 29.230469 24.113281 29.105469 24.066406 28.980469 C 23.984375 28.746094 23.765625 28.589844 23.515625 28.589844 L 22.144531 28.589844 L 22.144531 27.421875 L 23.515625 27.421875 C 23.761719 27.421875 23.984375 27.265625 24.066406 27.03125 C 24.113281 26.90625 24.164062 26.78125 24.222656 26.660156 C 24.328125 26.433594 24.28125 26.167969 24.105469 25.992188 L 23.132812 25.019531 L 24.414062 23.746094 L 25.386719 24.714844 C 25.558594 24.890625 25.828125 24.9375 26.050781 24.832031 C 26.171875 24.773438 26.296875 24.722656 26.425781 24.675781 C 26.660156 24.59375 26.8125 24.371094 26.8125 24.125 L 26.8125 22.75 L 27.980469 22.75 L 27.980469 24.125 C 27.980469 24.371094 28.136719 24.59375 28.367188 24.675781 C 28.496094 24.71875 28.621094 24.773438 28.746094 24.832031 C 28.96875 24.9375 29.234375 24.890625 29.410156 24.714844 L 30.378906 23.746094 L 31.660156 25.019531 L 30.6875 25.992188 C 30.511719 26.167969 30.464844 26.433594 30.570312 26.660156 C 30.628906 26.78125 30.679688 26.90625 30.726562 27.03125 C 30.808594 27.265625 31.027344 27.421875 31.277344 27.421875 L 32.652344 27.421875 Z M 32.652344 28.589844 "/>
<path style=" stroke:none;fill-rule:nonzero;fill:rgb(10.196078%,43.529412%,69.019608%);fill-opacity:1;" d="M 27.398438 25.085938 C 25.785156 25.085938 24.476562 26.394531 24.476562 28.003906 C 24.476562 29.617188 25.785156 30.925781 27.398438 30.925781 C 29.007812 30.925781 30.316406 29.617188 30.316406 28.003906 C 30.3125 26.394531 29.007812 25.085938 27.398438 25.085938 Z M 27.398438 29.757812 C 26.429688 29.757812 25.644531 28.972656 25.644531 28.003906 C 25.644531 27.039062 26.429688 26.253906 27.398438 26.253906 C 28.363281 26.253906 29.148438 27.039062 29.148438 28.003906 C 29.148438 28.972656 28.363281 29.757812 27.398438 29.757812 Z M 27.398438 29.757812 "/>
<path style=" stroke:none;fill-rule:nonzero;fill:rgb(10.196078%,43.529412%,69.019608%);fill-opacity:1;" d="M 34.898438 17.191406 C 34.792969 17.019531 34.605469 16.914062 34.402344 16.914062 L 33.804688 16.914062 C 33.546875 9.691406 28.722656 3.429688 21.804688 1.339844 C 14.890625 -0.757812 7.40625 1.777344 3.183594 7.644531 C -1.039062 13.507812 -1.0625 21.410156 3.117188 27.304688 C 7.300781 33.199219 14.765625 35.78125 21.699219 33.734375 L 21.367188 32.617188 C 14.90625 34.535156 7.941406 32.136719 4.035156 26.644531 C 0.128906 21.152344 0.140625 13.785156 4.070312 8.3125 C 8 2.835938 14.972656 0.464844 21.425781 2.40625 C 27.878906 4.347656 32.386719 10.179688 32.636719 16.914062 L 32.066406 16.914062 C 31.863281 16.914062 31.675781 17.015625 31.570312 17.1875 C 31.460938 17.359375 31.453125 17.578125 31.542969 17.757812 L 32.710938 20.09375 C 32.808594 20.289062 33.011719 20.417969 33.234375 20.417969 C 33.453125 20.417969 33.65625 20.289062 33.757812 20.09375 L 34.921875 17.757812 C 35.015625 17.578125 35.003906 17.363281 34.898438 17.191406 Z M 33.234375 18.527344 L 33.011719 18.082031 L 33.457031 18.082031 Z M 33.234375 18.527344 "/>
<path style=" stroke:none;fill-rule:nonzero;fill:rgb(10.196078%,43.529412%,69.019608%);fill-opacity:1;" d="M 25.816406 7.742188 L 18.496094 15.066406 C 17.242188 14.234375 15.5625 14.488281 14.613281 15.652344 C 13.660156 16.816406 13.746094 18.511719 14.808594 19.578125 C 15.871094 20.640625 17.570312 20.726562 18.730469 19.773438 C 19.894531 18.820312 20.152344 17.144531 19.320312 15.890625 L 26.640625 8.570312 Z M 16.886719 19.25 C 15.921875 19.25 15.136719 18.464844 15.136719 17.496094 C 15.136719 16.53125 15.921875 15.746094 16.886719 15.746094 C 17.855469 15.746094 18.640625 16.53125 18.640625 17.496094 C 18.640625 18.464844 17.855469 19.25 16.886719 19.25 Z M 16.886719 19.25 "/>
</g>
</svg>
